%
M48
M72
T01C0.0236
T02C0.0354
T03C0.0400
T04C0.0472
T05C0.1160
%
T01
X9300Y8000
X11100Y9900
X11200Y11500
X9300Y12400
X11200Y14000
X10800Y14900
X11800Y15600
X12600Y15700
X14600Y17100
X14600Y13900
X13600Y12400
X15600Y12200
X17100Y12200
X9500Y17100
X9200Y15900
X7900Y14400
X7300Y12900
X6100Y12300
X6200Y14400
X5900Y15100
X7500Y16200
X5500Y17000
X3900Y10800
T02
X17700Y14634
X17700Y16366
T03
X17650Y8600
X17550Y7600
X17650Y6600
X17550Y5600
X5900Y5500
X5900Y4500
X5900Y3500
X4600Y3500
X4600Y4500
X4600Y5500
X2650Y4600
X2550Y3600
X2550Y5600
X2650Y6600
X4730Y2100
X5870Y2100
T04
X8100Y3500
X8100Y4500
X9100Y4500
X9100Y3500
X10100Y3500
X10100Y4500
T05
X1350Y1350
X1350Y18850
X18850Y18850
X18850Y1350
M30
