G75*
%MOIN*%
%OFA0B0*%
%FSLAX24Y24*%
%IPPOS*%
%LPD*%
%AMOC8*
5,1,8,0,0,1.08239X$1,22.5*
%
%ADD10R,0.0500X0.0220*%
%ADD11R,0.0220X0.0500*%
%ADD12R,0.0315X0.0118*%
%ADD13R,0.0118X0.0315*%
%ADD14R,0.0394X0.0433*%
%ADD15R,0.0433X0.0394*%
%ADD16R,0.0600X0.0300*%
%ADD17C,0.0118*%
%ADD18R,0.0433X0.0748*%
%ADD19R,0.0551X0.0394*%
%ADD20R,0.0472X0.0217*%
%ADD21R,0.0217X0.0472*%
%ADD22R,0.0394X0.1811*%
%ADD23R,0.0630X0.1339*%
%ADD24R,0.0984X0.0197*%
%ADD25R,0.0984X0.0787*%
%ADD26R,0.0137X0.0550*%
D10*
X005910Y008498D03*
X005910Y008813D03*
X005910Y009128D03*
X005910Y009443D03*
X005910Y009757D03*
X005910Y010072D03*
X005910Y010387D03*
X005910Y010702D03*
X009290Y010702D03*
X009290Y010387D03*
X009290Y010072D03*
X009290Y009757D03*
X009290Y009443D03*
X009290Y009128D03*
X009290Y008813D03*
X009290Y008498D03*
D11*
X008702Y007910D03*
X008387Y007910D03*
X008072Y007910D03*
X007757Y007910D03*
X007443Y007910D03*
X007128Y007910D03*
X006813Y007910D03*
X006498Y007910D03*
X006498Y011290D03*
X006813Y011290D03*
X007128Y011290D03*
X007443Y011290D03*
X007757Y011290D03*
X008072Y011290D03*
X008387Y011290D03*
X008702Y011290D03*
D12*
X011898Y009897D03*
X011898Y009700D03*
X011898Y009503D03*
X012902Y009503D03*
X012902Y009700D03*
X012902Y009897D03*
D13*
X012794Y010202D03*
X012597Y010202D03*
X012400Y010202D03*
X012203Y010202D03*
X012006Y010202D03*
X012006Y009198D03*
X012203Y009198D03*
X012400Y009198D03*
X012597Y009198D03*
X012794Y009198D03*
D14*
X014100Y009365D03*
X014100Y010035D03*
X015100Y010035D03*
X015100Y009365D03*
X012400Y010965D03*
X012400Y011635D03*
X013900Y013165D03*
X013900Y013835D03*
X014500Y014565D03*
X014500Y015235D03*
X010500Y013935D03*
X010500Y013265D03*
X007200Y013565D03*
X007200Y014235D03*
X005500Y014435D03*
X005500Y013765D03*
X005500Y015765D03*
X005500Y016435D03*
X002500Y009235D03*
X002500Y008565D03*
X012200Y007535D03*
X012200Y006865D03*
D15*
X001865Y007900D03*
X002535Y007900D03*
X002535Y009900D03*
X001865Y009900D03*
X002265Y010800D03*
X002935Y010800D03*
X003765Y011800D03*
X004435Y011800D03*
X008065Y012400D03*
X008735Y012400D03*
X011465Y014900D03*
X012135Y014900D03*
X013265Y017100D03*
X013935Y017100D03*
X013935Y018000D03*
X013265Y018000D03*
X012835Y012400D03*
X012165Y012400D03*
X006035Y018100D03*
X005365Y018100D03*
X011665Y006000D03*
X012335Y006000D03*
D16*
X004500Y012950D03*
X004500Y014450D03*
X004500Y015750D03*
X004500Y017250D03*
X002500Y017250D03*
X002500Y015750D03*
X002500Y014450D03*
X002500Y012950D03*
D17*
X002393Y011938D02*
X002393Y011662D01*
X002117Y011662D01*
X002117Y011938D01*
X002393Y011938D01*
X002393Y011779D02*
X002117Y011779D01*
X002117Y011896D02*
X002393Y011896D01*
X003083Y011938D02*
X003083Y011662D01*
X002807Y011662D01*
X002807Y011938D01*
X003083Y011938D01*
X003083Y011779D02*
X002807Y011779D01*
X002807Y011896D02*
X003083Y011896D01*
X011793Y016962D02*
X011793Y017238D01*
X011793Y016962D02*
X011517Y016962D01*
X011517Y017238D01*
X011793Y017238D01*
X011793Y017079D02*
X011517Y017079D01*
X011517Y017196D02*
X011793Y017196D01*
X012483Y017238D02*
X012483Y016962D01*
X012207Y016962D01*
X012207Y017238D01*
X012483Y017238D01*
X012483Y017079D02*
X012207Y017079D01*
X012207Y017196D02*
X012483Y017196D01*
X012483Y017862D02*
X012483Y018138D01*
X012483Y017862D02*
X012207Y017862D01*
X012207Y018138D01*
X012483Y018138D01*
X012483Y017979D02*
X012207Y017979D01*
X012207Y018096D02*
X012483Y018096D01*
X011793Y018138D02*
X011793Y017862D01*
X011517Y017862D01*
X011517Y018138D01*
X011793Y018138D01*
X011793Y017979D02*
X011517Y017979D01*
X011517Y018096D02*
X011793Y018096D01*
D18*
X004453Y009628D03*
X003547Y009628D03*
X003547Y008172D03*
X004453Y008172D03*
D19*
X009633Y013226D03*
X009633Y013974D03*
X008767Y013600D03*
X012167Y013500D03*
X013033Y013126D03*
X013033Y013874D03*
X013633Y014526D03*
X013633Y015274D03*
X012767Y014900D03*
D20*
X014088Y011674D03*
X014088Y010926D03*
X015112Y010926D03*
X015112Y011300D03*
X015112Y011674D03*
D21*
X013974Y007712D03*
X013226Y007712D03*
X013226Y006688D03*
X013600Y006688D03*
X013974Y006688D03*
D22*
X014006Y003657D03*
X014794Y003657D03*
D23*
X015739Y001609D03*
X013061Y001609D03*
D24*
X016716Y014870D03*
X016716Y015185D03*
X016716Y015500D03*
X016716Y015815D03*
X016716Y016130D03*
D25*
X016716Y017272D03*
X018881Y017272D03*
X018881Y013728D03*
X016716Y013728D03*
D26*
X010263Y015061D03*
X010007Y015061D03*
X009752Y015061D03*
X009496Y015061D03*
X009240Y015061D03*
X008984Y015061D03*
X008728Y015061D03*
X008472Y015061D03*
X008216Y015061D03*
X007960Y015061D03*
X007704Y015061D03*
X007448Y015061D03*
X007193Y015061D03*
X006937Y015061D03*
X006937Y017939D03*
X007193Y017939D03*
X007448Y017939D03*
X007704Y017939D03*
X007960Y017939D03*
X008216Y017939D03*
X008472Y017939D03*
X008728Y017939D03*
X008984Y017939D03*
X009240Y017939D03*
X009496Y017939D03*
X009752Y017939D03*
X010007Y017939D03*
X010263Y017939D03*
M02*
