G75*
%MOIN*%
%OFA0B0*%
%FSLAX24Y24*%
%IPPOS*%
%LPD*%
%AMOC8*
5,1,8,0,0,1.08239X$1,22.5*
%
%ADD10OC8,0.0720*%
%ADD11C,0.0740*%
%ADD12R,0.0740X0.0740*%
%ADD13C,0.1560*%
%ADD14C,0.0436*%
%ADD15C,0.0100*%
%ADD16C,0.0240*%
D10*
X008100Y003500D03*
X008100Y004500D03*
X009100Y004500D03*
X009100Y003500D03*
X010100Y003500D03*
X010100Y004500D03*
D11*
X005900Y004500D03*
X005900Y003500D03*
X004600Y003500D03*
X004600Y004500D03*
X004600Y005500D03*
X005900Y005500D03*
X002650Y004600D03*
X002550Y003600D03*
X002550Y005600D03*
X004730Y002100D03*
X005870Y002100D03*
X017550Y007600D03*
X017650Y006600D03*
X017650Y008600D03*
D12*
X017550Y005600D03*
X002650Y006600D03*
D13*
X001350Y001350D03*
X001350Y018850D03*
X018850Y018850D03*
X018850Y001350D03*
D14*
X011100Y009900D03*
X011200Y011500D03*
X009300Y012400D03*
X011200Y014000D03*
X010800Y014900D03*
X011800Y015600D03*
X012600Y015700D03*
X014600Y017100D03*
X014600Y013900D03*
X013600Y012400D03*
X015600Y012200D03*
X017100Y012200D03*
X009500Y017100D03*
X009200Y015900D03*
X007900Y014400D03*
X007300Y012900D03*
X006100Y012300D03*
X006200Y014400D03*
X005900Y015100D03*
X007500Y016200D03*
X005500Y017000D03*
X003900Y010800D03*
X009300Y008000D03*
D15*
X009300Y006100D01*
X009100Y005900D01*
X009100Y004500D01*
X009465Y004828D02*
X009735Y004828D01*
X009637Y004730D02*
X009563Y004730D01*
X009590Y004703D02*
X009303Y004990D01*
X009280Y004990D01*
X009280Y005825D01*
X009480Y006025D01*
X009480Y007698D01*
X009497Y007705D01*
X009595Y007803D01*
X009648Y007931D01*
X009648Y008069D01*
X009595Y008197D01*
X009497Y008295D01*
X009369Y008348D01*
X009231Y008348D01*
X009103Y008295D01*
X009005Y008197D01*
X008952Y008069D01*
X008952Y007931D01*
X009005Y007803D01*
X009103Y007705D01*
X009120Y007698D01*
X009120Y006175D01*
X008920Y005975D01*
X008920Y004990D01*
X008897Y004990D01*
X008610Y004703D01*
X008610Y004297D01*
X008897Y004010D01*
X009303Y004010D01*
X009590Y004297D01*
X009590Y004703D01*
X009610Y004703D02*
X009610Y004297D01*
X009897Y004010D01*
X010303Y004010D01*
X010590Y004297D01*
X010590Y004703D01*
X010303Y004990D01*
X009897Y004990D01*
X009610Y004703D01*
X009610Y004631D02*
X009590Y004631D01*
X009590Y004533D02*
X009610Y004533D01*
X009610Y004434D02*
X009590Y004434D01*
X009590Y004336D02*
X009610Y004336D01*
X009670Y004237D02*
X009530Y004237D01*
X009431Y004139D02*
X009769Y004139D01*
X009867Y004040D02*
X009333Y004040D01*
X009303Y003990D02*
X008897Y003990D01*
X008610Y003703D01*
X008610Y003297D01*
X008897Y003010D01*
X009303Y003010D01*
X009590Y003297D01*
X009590Y003703D01*
X009303Y003990D01*
X009351Y003942D02*
X009820Y003942D01*
X009889Y004010D02*
X009590Y003711D01*
X009590Y003550D01*
X010050Y003550D01*
X010050Y004010D01*
X009889Y004010D01*
X010050Y003942D02*
X010150Y003942D01*
X010150Y004010D02*
X010311Y004010D01*
X010610Y003711D01*
X010610Y003550D01*
X010150Y003550D01*
X010150Y003450D01*
X010610Y003450D01*
X010610Y003289D01*
X010311Y002990D01*
X010150Y002990D01*
X010150Y003450D01*
X010050Y003450D01*
X010050Y002990D01*
X009889Y002990D01*
X009590Y003289D01*
X009590Y003450D01*
X010050Y003450D01*
X010050Y003550D01*
X010150Y003550D01*
X010150Y004010D01*
X010150Y003843D02*
X010050Y003843D01*
X010050Y003745D02*
X010150Y003745D01*
X010150Y003646D02*
X010050Y003646D01*
X010050Y003548D02*
X009590Y003548D01*
X009590Y003646D02*
X009590Y003646D01*
X009623Y003745D02*
X009548Y003745D01*
X009450Y003843D02*
X009722Y003843D01*
X009590Y003449D02*
X009590Y003449D01*
X009590Y003351D02*
X009590Y003351D01*
X009627Y003252D02*
X009545Y003252D01*
X009446Y003154D02*
X009725Y003154D01*
X009824Y003055D02*
X009348Y003055D01*
X008852Y003055D02*
X008348Y003055D01*
X008303Y003010D02*
X008590Y003297D01*
X008590Y003703D01*
X008303Y003990D01*
X007897Y003990D01*
X007610Y003703D01*
X007610Y003297D01*
X007897Y003010D01*
X008303Y003010D01*
X008446Y003154D02*
X008754Y003154D01*
X008655Y003252D02*
X008545Y003252D01*
X008590Y003351D02*
X008610Y003351D01*
X008610Y003449D02*
X008590Y003449D01*
X008590Y003548D02*
X008610Y003548D01*
X008610Y003646D02*
X008590Y003646D01*
X008548Y003745D02*
X008652Y003745D01*
X008750Y003843D02*
X008450Y003843D01*
X008351Y003942D02*
X008849Y003942D01*
X008867Y004040D02*
X008333Y004040D01*
X008303Y004010D02*
X008590Y004297D01*
X008590Y004703D01*
X008303Y004990D01*
X008280Y004990D01*
X008280Y005634D01*
X008286Y005641D01*
X008280Y005707D01*
X008280Y005775D01*
X008274Y005781D01*
X008273Y005789D01*
X008222Y005833D01*
X008175Y005880D01*
X008166Y005880D01*
X005680Y007983D01*
X005680Y012720D01*
X006998Y012720D01*
X007005Y012703D01*
X007103Y012605D01*
X007231Y012552D01*
X007369Y012552D01*
X007497Y012605D01*
X007595Y012703D01*
X007648Y012831D01*
X007648Y012969D01*
X007595Y013097D01*
X007497Y013195D01*
X007369Y013248D01*
X007231Y013248D01*
X007103Y013195D01*
X007005Y013097D01*
X006998Y013080D01*
X005680Y013080D01*
X005680Y016698D01*
X005697Y016705D01*
X005795Y016803D01*
X005848Y016931D01*
X005848Y017069D01*
X005795Y017197D01*
X005697Y017295D01*
X005569Y017348D01*
X005431Y017348D01*
X005303Y017295D01*
X005205Y017197D01*
X005152Y017069D01*
X005152Y016931D01*
X005205Y016803D01*
X005303Y016705D01*
X005320Y016698D01*
X005320Y007966D01*
X005314Y007959D01*
X005320Y007893D01*
X005320Y007825D01*
X005326Y007819D01*
X005327Y007811D01*
X005378Y007767D01*
X005425Y007720D01*
X005434Y007720D01*
X007920Y005617D01*
X007920Y004990D01*
X007897Y004990D01*
X007610Y004703D01*
X007610Y004297D01*
X007897Y004010D01*
X008303Y004010D01*
X008431Y004139D02*
X008769Y004139D01*
X008670Y004237D02*
X008530Y004237D01*
X008590Y004336D02*
X008610Y004336D01*
X008610Y004434D02*
X008590Y004434D01*
X008590Y004533D02*
X008610Y004533D01*
X008610Y004631D02*
X008590Y004631D01*
X008563Y004730D02*
X008637Y004730D01*
X008735Y004828D02*
X008465Y004828D01*
X008366Y004927D02*
X008834Y004927D01*
X008920Y005025D02*
X008280Y005025D01*
X008280Y005124D02*
X008920Y005124D01*
X008920Y005222D02*
X008280Y005222D01*
X008280Y005321D02*
X008920Y005321D01*
X008920Y005419D02*
X008280Y005419D01*
X008280Y005518D02*
X008920Y005518D01*
X008920Y005616D02*
X008280Y005616D01*
X008280Y005715D02*
X008920Y005715D01*
X008920Y005813D02*
X008245Y005813D01*
X008129Y005912D02*
X008920Y005912D01*
X008955Y006010D02*
X008012Y006010D01*
X007896Y006109D02*
X009054Y006109D01*
X009120Y006207D02*
X007779Y006207D01*
X007663Y006306D02*
X009120Y006306D01*
X009120Y006404D02*
X007547Y006404D01*
X007430Y006503D02*
X009120Y006503D01*
X009120Y006601D02*
X007314Y006601D01*
X007197Y006700D02*
X009120Y006700D01*
X009120Y006798D02*
X007081Y006798D01*
X006965Y006897D02*
X009120Y006897D01*
X009120Y006995D02*
X006848Y006995D01*
X006732Y007094D02*
X009120Y007094D01*
X009120Y007192D02*
X006615Y007192D01*
X006499Y007291D02*
X009120Y007291D01*
X009120Y007389D02*
X006383Y007389D01*
X006266Y007488D02*
X009120Y007488D01*
X009120Y007586D02*
X006150Y007586D01*
X006033Y007685D02*
X009120Y007685D01*
X009025Y007783D02*
X005917Y007783D01*
X005801Y007882D02*
X008972Y007882D01*
X008952Y007980D02*
X005684Y007980D01*
X005680Y008079D02*
X008956Y008079D01*
X008997Y008177D02*
X005680Y008177D01*
X005680Y008276D02*
X009083Y008276D01*
X009480Y007685D02*
X017050Y007685D01*
X017050Y007699D02*
X017050Y007501D01*
X017126Y007317D01*
X017267Y007176D01*
X017451Y007100D01*
X017649Y007100D01*
X017833Y007176D01*
X017974Y007317D01*
X018050Y007501D01*
X018050Y007699D01*
X017974Y007883D01*
X017833Y008024D01*
X017649Y008100D01*
X017451Y008100D01*
X017267Y008024D01*
X017126Y007883D01*
X017050Y007699D01*
X017085Y007783D02*
X009575Y007783D01*
X009628Y007882D02*
X017125Y007882D01*
X017223Y007980D02*
X009648Y007980D01*
X009644Y008079D02*
X017399Y008079D01*
X017367Y008176D02*
X017551Y008100D01*
X017749Y008100D01*
X017933Y008176D01*
X018074Y008317D01*
X018150Y008501D01*
X018150Y008699D01*
X018074Y008883D01*
X017933Y009024D01*
X017749Y009100D01*
X017551Y009100D01*
X017367Y009024D01*
X017226Y008883D01*
X017150Y008699D01*
X017150Y008501D01*
X017226Y008317D01*
X017367Y008176D01*
X017366Y008177D02*
X009603Y008177D01*
X009517Y008276D02*
X017267Y008276D01*
X017202Y008374D02*
X005680Y008374D01*
X005680Y008473D02*
X017162Y008473D01*
X017150Y008571D02*
X005680Y008571D01*
X005680Y008670D02*
X017150Y008670D01*
X017178Y008768D02*
X005680Y008768D01*
X005680Y008867D02*
X017219Y008867D01*
X017308Y008965D02*
X005680Y008965D01*
X005680Y009064D02*
X017462Y009064D01*
X017838Y009064D02*
X018850Y009064D01*
X018850Y009162D02*
X005680Y009162D01*
X005680Y009261D02*
X018850Y009261D01*
X018850Y009359D02*
X005680Y009359D01*
X005680Y009458D02*
X018850Y009458D01*
X018850Y009556D02*
X011179Y009556D01*
X011169Y009552D02*
X011297Y009605D01*
X011395Y009703D01*
X011448Y009831D01*
X011448Y009969D01*
X011395Y010097D01*
X011297Y010195D01*
X011280Y010202D01*
X011280Y010325D01*
X011880Y010925D01*
X011880Y012825D01*
X012075Y013020D01*
X014375Y013020D01*
X014480Y013125D01*
X014780Y013425D01*
X014780Y013598D01*
X014797Y013605D01*
X014895Y013703D01*
X014948Y013831D01*
X014948Y013969D01*
X014895Y014097D01*
X014797Y014195D01*
X014669Y014248D01*
X014531Y014248D01*
X014403Y014195D01*
X014305Y014097D01*
X014252Y013969D01*
X014252Y013831D01*
X014305Y013703D01*
X014403Y013605D01*
X014420Y013598D01*
X014420Y013575D01*
X014225Y013380D01*
X011925Y013380D01*
X011625Y013080D01*
X011520Y012975D01*
X011520Y011637D01*
X011495Y011697D01*
X011397Y011795D01*
X011380Y011802D01*
X011380Y013698D01*
X011397Y013705D01*
X011495Y013803D01*
X011548Y013931D01*
X011548Y014069D01*
X011495Y014197D01*
X011397Y014295D01*
X011269Y014348D01*
X011131Y014348D01*
X011003Y014295D01*
X010905Y014197D01*
X010852Y014069D01*
X010852Y013931D01*
X010905Y013803D01*
X011003Y013705D01*
X011020Y013698D01*
X011020Y011802D01*
X011003Y011795D01*
X010905Y011697D01*
X010852Y011569D01*
X010852Y011431D01*
X010905Y011303D01*
X011003Y011205D01*
X011131Y011152D01*
X011269Y011152D01*
X011397Y011205D01*
X011495Y011303D01*
X011520Y011363D01*
X011520Y011075D01*
X011025Y010580D01*
X010920Y010475D01*
X010920Y010202D01*
X010903Y010195D01*
X010805Y010097D01*
X010752Y009969D01*
X010752Y009831D01*
X010805Y009703D01*
X010903Y009605D01*
X011031Y009552D01*
X011169Y009552D01*
X011021Y009556D02*
X005680Y009556D01*
X005680Y009655D02*
X010853Y009655D01*
X010784Y009753D02*
X005680Y009753D01*
X005680Y009852D02*
X010752Y009852D01*
X010752Y009950D02*
X005680Y009950D01*
X005680Y010049D02*
X010785Y010049D01*
X010855Y010147D02*
X005680Y010147D01*
X005680Y010246D02*
X010920Y010246D01*
X010920Y010344D02*
X005680Y010344D01*
X005680Y010443D02*
X010920Y010443D01*
X010986Y010541D02*
X005680Y010541D01*
X005680Y010640D02*
X011085Y010640D01*
X011183Y010738D02*
X005680Y010738D01*
X005680Y010837D02*
X011282Y010837D01*
X011380Y010935D02*
X005680Y010935D01*
X005680Y011034D02*
X011479Y011034D01*
X011520Y011132D02*
X005680Y011132D01*
X005680Y011231D02*
X010977Y011231D01*
X010894Y011329D02*
X005680Y011329D01*
X005680Y011428D02*
X010853Y011428D01*
X010852Y011526D02*
X005680Y011526D01*
X005680Y011625D02*
X010875Y011625D01*
X010931Y011723D02*
X005680Y011723D01*
X005680Y011822D02*
X011020Y011822D01*
X011020Y011920D02*
X005680Y011920D01*
X005680Y012019D02*
X005889Y012019D01*
X005903Y012005D02*
X006031Y011952D01*
X006169Y011952D01*
X006297Y012005D01*
X006395Y012103D01*
X006402Y012120D01*
X007975Y012120D01*
X008275Y012420D01*
X008380Y012525D01*
X008380Y013625D01*
X008675Y013920D01*
X009875Y013920D01*
X010375Y014420D01*
X010480Y014525D01*
X010480Y015210D01*
X010760Y015420D01*
X011498Y015420D01*
X011505Y015403D01*
X011603Y015305D01*
X011731Y015252D01*
X011869Y015252D01*
X011997Y015305D01*
X012095Y015403D01*
X012148Y015531D01*
X012148Y015669D01*
X012095Y015797D01*
X011997Y015895D01*
X011869Y015948D01*
X011731Y015948D01*
X011603Y015895D01*
X011505Y015797D01*
X011498Y015780D01*
X010713Y015780D01*
X010652Y015789D01*
X010640Y015780D01*
X010625Y015780D01*
X010582Y015736D01*
X010240Y015480D01*
X010225Y015480D01*
X010182Y015436D01*
X010132Y015399D01*
X010130Y015385D01*
X010120Y015375D01*
X010120Y015313D01*
X010111Y015252D01*
X010120Y015240D01*
X010120Y014675D01*
X009725Y014280D01*
X008525Y014280D01*
X008020Y013775D01*
X008020Y012675D01*
X007825Y012480D01*
X006402Y012480D01*
X006395Y012497D01*
X006297Y012595D01*
X006169Y012648D01*
X006031Y012648D01*
X005903Y012595D01*
X005805Y012497D01*
X005752Y012369D01*
X005752Y012231D01*
X005805Y012103D01*
X005903Y012005D01*
X005799Y012117D02*
X005680Y012117D01*
X005680Y012216D02*
X005758Y012216D01*
X005752Y012314D02*
X005680Y012314D01*
X005680Y012413D02*
X005770Y012413D01*
X005819Y012511D02*
X005680Y012511D01*
X005680Y012610D02*
X005938Y012610D01*
X005680Y012708D02*
X007003Y012708D01*
X007098Y012610D02*
X006262Y012610D01*
X006381Y012511D02*
X007856Y012511D01*
X007955Y012610D02*
X007502Y012610D01*
X007597Y012708D02*
X008020Y012708D01*
X008020Y012807D02*
X007638Y012807D01*
X007648Y012905D02*
X008020Y012905D01*
X008020Y013004D02*
X007634Y013004D01*
X007590Y013102D02*
X008020Y013102D01*
X008020Y013201D02*
X007484Y013201D01*
X007300Y012900D02*
X005500Y012900D01*
X005500Y007900D01*
X008100Y005700D01*
X008100Y004500D01*
X007769Y004139D02*
X006246Y004139D01*
X006183Y004076D02*
X006324Y004217D01*
X006400Y004401D01*
X006400Y004599D01*
X006324Y004783D01*
X006183Y004924D01*
X005999Y005000D01*
X005801Y005000D01*
X005617Y004924D01*
X005476Y004783D01*
X005400Y004599D01*
X005400Y004401D01*
X005476Y004217D01*
X005617Y004076D01*
X005801Y004000D01*
X005617Y003924D01*
X005476Y003783D01*
X005462Y003750D01*
X005038Y003750D01*
X005024Y003783D01*
X004883Y003924D01*
X004699Y004000D01*
X004883Y004076D01*
X005024Y004217D01*
X005100Y004401D01*
X005100Y004599D01*
X005024Y004783D01*
X004883Y004924D01*
X004699Y005000D01*
X004883Y005076D01*
X005024Y005217D01*
X005100Y005401D01*
X005100Y005599D01*
X005024Y005783D01*
X004883Y005924D01*
X004699Y006000D01*
X004501Y006000D01*
X004317Y005924D01*
X004176Y005783D01*
X004100Y005599D01*
X004100Y005401D01*
X004176Y005217D01*
X004317Y005076D01*
X004501Y005000D01*
X004699Y005000D01*
X004501Y005000D01*
X004317Y004924D01*
X004176Y004783D01*
X004100Y004599D01*
X004100Y004401D01*
X004176Y004217D01*
X004317Y004076D01*
X004501Y004000D01*
X004699Y004000D01*
X004501Y004000D01*
X004317Y003924D01*
X004176Y003783D01*
X004100Y003599D01*
X004100Y003401D01*
X004176Y003217D01*
X004317Y003076D01*
X004501Y003000D01*
X004699Y003000D01*
X004883Y003076D01*
X005024Y003217D01*
X005038Y003250D01*
X005462Y003250D01*
X005476Y003217D01*
X005617Y003076D01*
X005620Y003075D01*
X005620Y002538D01*
X005587Y002524D01*
X005446Y002383D01*
X005370Y002199D01*
X005370Y002001D01*
X005446Y001817D01*
X005587Y001676D01*
X005031Y001676D01*
X005003Y001655D02*
X005069Y001703D01*
X005127Y001761D01*
X005175Y001827D01*
X005212Y001900D01*
X005237Y001978D01*
X005249Y002050D01*
X004780Y002050D01*
X004780Y002150D01*
X004680Y002150D01*
X004680Y002619D01*
X004608Y002607D01*
X004530Y002582D01*
X004457Y002545D01*
X004391Y002497D01*
X004333Y002439D01*
X004285Y002373D01*
X004248Y002300D01*
X004223Y002222D01*
X004211Y002150D01*
X004680Y002150D01*
X004680Y002050D01*
X004211Y002050D01*
X004223Y001978D01*
X004248Y001900D01*
X004285Y001827D01*
X004333Y001761D01*
X004391Y001703D01*
X004457Y001655D01*
X004530Y001618D01*
X004608Y001593D01*
X004680Y001581D01*
X004680Y002050D01*
X004780Y002050D01*
X004780Y001581D01*
X004852Y001593D01*
X004930Y001618D01*
X005003Y001655D01*
X005136Y001775D02*
X005488Y001775D01*
X005423Y001873D02*
X005198Y001873D01*
X005235Y001972D02*
X005382Y001972D01*
X005370Y002070D02*
X004780Y002070D01*
X004780Y002150D02*
X005249Y002150D01*
X005237Y002222D01*
X005212Y002300D01*
X005175Y002373D01*
X005127Y002439D01*
X005069Y002497D01*
X005003Y002545D01*
X004930Y002582D01*
X004852Y002607D01*
X004780Y002619D01*
X004780Y002150D01*
X004780Y002169D02*
X004680Y002169D01*
X004680Y002267D02*
X004780Y002267D01*
X004780Y002366D02*
X004680Y002366D01*
X004680Y002464D02*
X004780Y002464D01*
X004780Y002563D02*
X004680Y002563D01*
X004492Y002563D02*
X001350Y002563D01*
X001350Y002661D02*
X005620Y002661D01*
X005620Y002563D02*
X004968Y002563D01*
X005101Y002464D02*
X005527Y002464D01*
X005439Y002366D02*
X005178Y002366D01*
X005222Y002267D02*
X005398Y002267D01*
X005370Y002169D02*
X005246Y002169D01*
X004780Y001972D02*
X004680Y001972D01*
X004680Y002070D02*
X001917Y002070D01*
X001865Y002121D02*
X001531Y002260D01*
X001350Y002260D01*
X001350Y017940D01*
X001531Y017940D01*
X001865Y018079D01*
X002121Y018335D01*
X002260Y018669D01*
X002260Y018850D01*
X017940Y018850D01*
X017940Y018669D01*
X018079Y018335D01*
X018335Y018079D01*
X018669Y017940D01*
X018850Y017940D01*
X018850Y002260D01*
X018669Y002260D01*
X018335Y002121D01*
X018079Y001865D01*
X017940Y001531D01*
X017940Y001350D01*
X002260Y001350D01*
X002260Y001531D01*
X002121Y001865D01*
X001865Y002121D01*
X001752Y002169D02*
X004214Y002169D01*
X004238Y002267D02*
X001350Y002267D01*
X001350Y002366D02*
X004282Y002366D01*
X004359Y002464D02*
X001350Y002464D01*
X001350Y002760D02*
X005620Y002760D01*
X005620Y002858D02*
X001350Y002858D01*
X001350Y002957D02*
X005620Y002957D01*
X005620Y003055D02*
X004832Y003055D01*
X004961Y003154D02*
X005539Y003154D01*
X006120Y003050D02*
X006120Y002538D01*
X006153Y002524D01*
X006294Y002383D01*
X006370Y002199D01*
X006370Y002001D01*
X006294Y001817D01*
X006153Y001676D01*
X018000Y001676D01*
X017959Y001578D02*
X002241Y001578D01*
X002260Y001479D02*
X017940Y001479D01*
X017940Y001381D02*
X002260Y001381D01*
X002200Y001676D02*
X004429Y001676D01*
X004324Y001775D02*
X002159Y001775D01*
X002114Y001873D02*
X004262Y001873D01*
X004225Y001972D02*
X002015Y001972D01*
X002350Y003118D02*
X002428Y003093D01*
X002500Y003081D01*
X002500Y003550D01*
X002031Y003550D01*
X002043Y003478D01*
X002068Y003400D01*
X002105Y003327D01*
X002153Y003261D01*
X002211Y003203D01*
X002277Y003155D01*
X002350Y003118D01*
X002281Y003154D02*
X001350Y003154D01*
X001350Y003252D02*
X002163Y003252D01*
X002094Y003351D02*
X001350Y003351D01*
X001350Y003449D02*
X002052Y003449D01*
X002032Y003548D02*
X001350Y003548D01*
X001350Y003646D02*
X002500Y003646D01*
X002500Y003650D02*
X002500Y003550D01*
X002600Y003550D01*
X002600Y003650D01*
X003069Y003650D01*
X003057Y003722D01*
X003032Y003800D01*
X002995Y003873D01*
X002947Y003939D01*
X002889Y003997D01*
X002823Y004045D01*
X002750Y004082D01*
X002734Y004087D01*
X002772Y004093D01*
X002850Y004118D01*
X002923Y004155D01*
X002989Y004203D01*
X003047Y004261D01*
X003095Y004327D01*
X003132Y004400D01*
X003157Y004478D01*
X003169Y004550D01*
X002700Y004550D01*
X002700Y004650D01*
X002600Y004650D01*
X002600Y005100D01*
X002649Y005100D01*
X002833Y005176D01*
X002974Y005317D01*
X003050Y005501D01*
X003050Y005699D01*
X002974Y005883D01*
X002833Y006024D01*
X002649Y006100D01*
X002451Y006100D01*
X002267Y006024D01*
X002126Y005883D01*
X002050Y005699D01*
X002050Y005501D01*
X002126Y005317D01*
X002267Y005176D01*
X002451Y005100D01*
X002506Y005100D01*
X002450Y005082D01*
X002377Y005045D01*
X002311Y004997D01*
X002253Y004939D01*
X002205Y004873D01*
X002168Y004800D01*
X002143Y004722D01*
X002131Y004650D01*
X002600Y004650D01*
X002600Y004550D01*
X002131Y004550D01*
X002143Y004478D01*
X002168Y004400D01*
X002205Y004327D01*
X002253Y004261D01*
X002311Y004203D01*
X002377Y004155D01*
X002450Y004118D01*
X002466Y004113D01*
X002428Y004107D01*
X002350Y004082D01*
X002277Y004045D01*
X002211Y003997D01*
X002153Y003939D01*
X002105Y003873D01*
X002068Y003800D01*
X002043Y003722D01*
X002031Y003650D01*
X002500Y003650D01*
X002600Y003646D02*
X004119Y003646D01*
X004100Y003548D02*
X003068Y003548D01*
X003069Y003550D02*
X002600Y003550D01*
X002600Y003081D01*
X002672Y003093D01*
X002750Y003118D01*
X002823Y003155D01*
X002889Y003203D01*
X002947Y003261D01*
X002995Y003327D01*
X003032Y003400D01*
X003057Y003478D01*
X003069Y003550D01*
X003048Y003449D02*
X004100Y003449D01*
X004121Y003351D02*
X003006Y003351D01*
X002937Y003252D02*
X004162Y003252D01*
X004239Y003154D02*
X002819Y003154D01*
X002600Y003154D02*
X002500Y003154D01*
X002500Y003252D02*
X002600Y003252D01*
X002600Y003351D02*
X002500Y003351D01*
X002500Y003449D02*
X002600Y003449D01*
X002600Y003548D02*
X002500Y003548D01*
X002050Y003745D02*
X001350Y003745D01*
X001350Y003843D02*
X002090Y003843D01*
X002156Y003942D02*
X001350Y003942D01*
X001350Y004040D02*
X002271Y004040D01*
X002410Y004139D02*
X001350Y004139D01*
X001350Y004237D02*
X002278Y004237D01*
X002201Y004336D02*
X001350Y004336D01*
X001350Y004434D02*
X002157Y004434D01*
X002134Y004533D02*
X001350Y004533D01*
X001350Y004631D02*
X002600Y004631D01*
X002600Y004730D02*
X002700Y004730D01*
X002700Y004650D02*
X002700Y005119D01*
X002772Y005107D01*
X002850Y005082D01*
X002923Y005045D01*
X002989Y004997D01*
X003047Y004939D01*
X003095Y004873D01*
X003132Y004800D01*
X003157Y004722D01*
X003169Y004650D01*
X002700Y004650D01*
X002700Y004631D02*
X004113Y004631D01*
X004100Y004533D02*
X003166Y004533D01*
X003143Y004434D02*
X004100Y004434D01*
X004127Y004336D02*
X003099Y004336D01*
X003022Y004237D02*
X004168Y004237D01*
X004254Y004139D02*
X002890Y004139D01*
X002829Y004040D02*
X004404Y004040D01*
X004359Y003942D02*
X002944Y003942D01*
X003010Y003843D02*
X004236Y003843D01*
X004160Y003745D02*
X003050Y003745D01*
X003155Y004730D02*
X004154Y004730D01*
X004221Y004828D02*
X003117Y004828D01*
X003056Y004927D02*
X004323Y004927D01*
X004440Y005025D02*
X002950Y005025D01*
X002879Y005222D02*
X004174Y005222D01*
X004133Y005321D02*
X002975Y005321D01*
X003016Y005419D02*
X004100Y005419D01*
X004100Y005518D02*
X003050Y005518D01*
X003050Y005616D02*
X004107Y005616D01*
X004148Y005715D02*
X003044Y005715D01*
X003003Y005813D02*
X004206Y005813D01*
X004304Y005912D02*
X002946Y005912D01*
X002847Y006010D02*
X007455Y006010D01*
X007571Y005912D02*
X006196Y005912D01*
X006183Y005924D02*
X005999Y006000D01*
X005801Y006000D01*
X005617Y005924D01*
X005476Y005783D01*
X005400Y005599D01*
X005400Y005401D01*
X005476Y005217D01*
X005617Y005076D01*
X005801Y005000D01*
X005999Y005000D01*
X006183Y005076D01*
X006324Y005217D01*
X006400Y005401D01*
X006400Y005599D01*
X006324Y005783D01*
X006183Y005924D01*
X006294Y005813D02*
X007688Y005813D01*
X007804Y005715D02*
X006352Y005715D01*
X006393Y005616D02*
X007920Y005616D01*
X007920Y005518D02*
X006400Y005518D01*
X006400Y005419D02*
X007920Y005419D01*
X007920Y005321D02*
X006367Y005321D01*
X006326Y005222D02*
X007920Y005222D01*
X007920Y005124D02*
X006231Y005124D01*
X006060Y005025D02*
X007920Y005025D01*
X007834Y004927D02*
X006177Y004927D01*
X006279Y004828D02*
X007735Y004828D01*
X007637Y004730D02*
X006346Y004730D01*
X006387Y004631D02*
X007610Y004631D01*
X007610Y004533D02*
X006400Y004533D01*
X006400Y004434D02*
X007610Y004434D01*
X007610Y004336D02*
X006373Y004336D01*
X006332Y004237D02*
X007670Y004237D01*
X007867Y004040D02*
X006096Y004040D01*
X006183Y004076D02*
X005999Y004000D01*
X005801Y004000D01*
X005999Y004000D01*
X006183Y003924D01*
X006324Y003783D01*
X006400Y003599D01*
X006400Y003401D01*
X006324Y003217D01*
X006183Y003076D01*
X006120Y003050D01*
X006132Y003055D02*
X007852Y003055D01*
X007754Y003154D02*
X006261Y003154D01*
X006338Y003252D02*
X007655Y003252D01*
X007610Y003351D02*
X006379Y003351D01*
X006400Y003449D02*
X007610Y003449D01*
X007610Y003548D02*
X006400Y003548D01*
X006381Y003646D02*
X007610Y003646D01*
X007652Y003745D02*
X006340Y003745D01*
X006264Y003843D02*
X007750Y003843D01*
X007849Y003942D02*
X006141Y003942D01*
X005704Y004040D02*
X004796Y004040D01*
X004841Y003942D02*
X005659Y003942D01*
X005536Y003843D02*
X004964Y003843D01*
X004946Y004139D02*
X005554Y004139D01*
X005468Y004237D02*
X005032Y004237D01*
X005073Y004336D02*
X005427Y004336D01*
X005400Y004434D02*
X005100Y004434D01*
X005100Y004533D02*
X005400Y004533D01*
X005413Y004631D02*
X005087Y004631D01*
X005046Y004730D02*
X005454Y004730D01*
X005521Y004828D02*
X004979Y004828D01*
X004877Y004927D02*
X005623Y004927D01*
X005740Y005025D02*
X004760Y005025D01*
X004931Y005124D02*
X005569Y005124D01*
X005474Y005222D02*
X005026Y005222D01*
X005067Y005321D02*
X005433Y005321D01*
X005400Y005419D02*
X005100Y005419D01*
X005100Y005518D02*
X005400Y005518D01*
X005407Y005616D02*
X005093Y005616D01*
X005052Y005715D02*
X005448Y005715D01*
X005506Y005813D02*
X004994Y005813D01*
X004896Y005912D02*
X005604Y005912D01*
X006407Y006897D02*
X003150Y006897D01*
X003150Y006995D02*
X006291Y006995D01*
X006174Y007094D02*
X003080Y007094D01*
X003074Y007100D02*
X002226Y007100D01*
X002150Y007024D01*
X002150Y006176D01*
X002226Y006100D01*
X003074Y006100D01*
X003150Y006176D01*
X003150Y007024D01*
X003074Y007100D01*
X003150Y006798D02*
X006524Y006798D01*
X006640Y006700D02*
X003150Y006700D01*
X003150Y006601D02*
X006756Y006601D01*
X006873Y006503D02*
X003150Y006503D01*
X003150Y006404D02*
X006989Y006404D01*
X007106Y006306D02*
X003150Y006306D01*
X003150Y006207D02*
X007222Y006207D01*
X007339Y006109D02*
X003082Y006109D01*
X002253Y006010D02*
X001350Y006010D01*
X001350Y005912D02*
X002154Y005912D01*
X002097Y005813D02*
X001350Y005813D01*
X001350Y005715D02*
X002056Y005715D01*
X002050Y005616D02*
X001350Y005616D01*
X001350Y005518D02*
X002050Y005518D01*
X002084Y005419D02*
X001350Y005419D01*
X001350Y005321D02*
X002125Y005321D01*
X002221Y005222D02*
X001350Y005222D01*
X001350Y005124D02*
X002394Y005124D01*
X002350Y005025D02*
X001350Y005025D01*
X001350Y004927D02*
X002244Y004927D01*
X002183Y004828D02*
X001350Y004828D01*
X001350Y004730D02*
X002145Y004730D01*
X002600Y004828D02*
X002700Y004828D01*
X002700Y004927D02*
X002600Y004927D01*
X002600Y005025D02*
X002700Y005025D01*
X002706Y005124D02*
X004269Y005124D01*
X004368Y003055D02*
X001350Y003055D01*
X001350Y006109D02*
X002218Y006109D01*
X002150Y006207D02*
X001350Y006207D01*
X001350Y006306D02*
X002150Y006306D01*
X002150Y006404D02*
X001350Y006404D01*
X001350Y006503D02*
X002150Y006503D01*
X002150Y006601D02*
X001350Y006601D01*
X001350Y006700D02*
X002150Y006700D01*
X002150Y006798D02*
X001350Y006798D01*
X001350Y006897D02*
X002150Y006897D01*
X002150Y006995D02*
X001350Y006995D01*
X001350Y007094D02*
X002220Y007094D01*
X001350Y007192D02*
X006058Y007192D01*
X005942Y007291D02*
X001350Y007291D01*
X001350Y007389D02*
X005825Y007389D01*
X005709Y007488D02*
X001350Y007488D01*
X001350Y007586D02*
X005592Y007586D01*
X005476Y007685D02*
X001350Y007685D01*
X001350Y007783D02*
X005360Y007783D01*
X005320Y007882D02*
X001350Y007882D01*
X001350Y007980D02*
X005320Y007980D01*
X005320Y008079D02*
X001350Y008079D01*
X001350Y008177D02*
X005320Y008177D01*
X005320Y008276D02*
X001350Y008276D01*
X001350Y008374D02*
X005320Y008374D01*
X005320Y008473D02*
X001350Y008473D01*
X001350Y008571D02*
X005320Y008571D01*
X005320Y008670D02*
X001350Y008670D01*
X001350Y008768D02*
X005320Y008768D01*
X005320Y008867D02*
X001350Y008867D01*
X001350Y008965D02*
X005320Y008965D01*
X005320Y009064D02*
X001350Y009064D01*
X001350Y009162D02*
X005320Y009162D01*
X005320Y009261D02*
X001350Y009261D01*
X001350Y009359D02*
X005320Y009359D01*
X005320Y009458D02*
X001350Y009458D01*
X001350Y009556D02*
X005320Y009556D01*
X005320Y009655D02*
X001350Y009655D01*
X001350Y009753D02*
X005320Y009753D01*
X005320Y009852D02*
X001350Y009852D01*
X001350Y009950D02*
X005320Y009950D01*
X005320Y010049D02*
X001350Y010049D01*
X001350Y010147D02*
X005320Y010147D01*
X005320Y010246D02*
X001350Y010246D01*
X001350Y010344D02*
X005320Y010344D01*
X005320Y010443D02*
X001350Y010443D01*
X001350Y010541D02*
X005320Y010541D01*
X005320Y010640D02*
X001350Y010640D01*
X001350Y010738D02*
X005320Y010738D01*
X005320Y010837D02*
X001350Y010837D01*
X001350Y010935D02*
X005320Y010935D01*
X005320Y011034D02*
X001350Y011034D01*
X001350Y011132D02*
X005320Y011132D01*
X005320Y011231D02*
X001350Y011231D01*
X001350Y011329D02*
X005320Y011329D01*
X005320Y011428D02*
X001350Y011428D01*
X001350Y011526D02*
X005320Y011526D01*
X005320Y011625D02*
X001350Y011625D01*
X001350Y011723D02*
X005320Y011723D01*
X005320Y011822D02*
X001350Y011822D01*
X001350Y011920D02*
X005320Y011920D01*
X005320Y012019D02*
X001350Y012019D01*
X001350Y012117D02*
X005320Y012117D01*
X005320Y012216D02*
X001350Y012216D01*
X001350Y012314D02*
X005320Y012314D01*
X005320Y012413D02*
X001350Y012413D01*
X001350Y012511D02*
X005320Y012511D01*
X005320Y012610D02*
X001350Y012610D01*
X001350Y012708D02*
X005320Y012708D01*
X005320Y012807D02*
X001350Y012807D01*
X001350Y012905D02*
X005320Y012905D01*
X005320Y013004D02*
X001350Y013004D01*
X001350Y013102D02*
X005320Y013102D01*
X005320Y013201D02*
X001350Y013201D01*
X001350Y013299D02*
X005320Y013299D01*
X005320Y013398D02*
X001350Y013398D01*
X001350Y013496D02*
X005320Y013496D01*
X005320Y013595D02*
X001350Y013595D01*
X001350Y013693D02*
X005320Y013693D01*
X005320Y013792D02*
X001350Y013792D01*
X001350Y013890D02*
X005320Y013890D01*
X005320Y013989D02*
X001350Y013989D01*
X001350Y014087D02*
X005320Y014087D01*
X005320Y014186D02*
X001350Y014186D01*
X001350Y014284D02*
X005320Y014284D01*
X005320Y014383D02*
X001350Y014383D01*
X001350Y014481D02*
X005320Y014481D01*
X005320Y014580D02*
X001350Y014580D01*
X001350Y014678D02*
X005320Y014678D01*
X005320Y014777D02*
X001350Y014777D01*
X001350Y014875D02*
X005320Y014875D01*
X005320Y014974D02*
X001350Y014974D01*
X001350Y015072D02*
X005320Y015072D01*
X005320Y015171D02*
X001350Y015171D01*
X001350Y015269D02*
X005320Y015269D01*
X005320Y015368D02*
X001350Y015368D01*
X001350Y015466D02*
X005320Y015466D01*
X005320Y015565D02*
X001350Y015565D01*
X001350Y015663D02*
X005320Y015663D01*
X005320Y015762D02*
X001350Y015762D01*
X001350Y015860D02*
X005320Y015860D01*
X005320Y015959D02*
X001350Y015959D01*
X001350Y016057D02*
X005320Y016057D01*
X005320Y016156D02*
X001350Y016156D01*
X001350Y016254D02*
X005320Y016254D01*
X005320Y016353D02*
X001350Y016353D01*
X001350Y016451D02*
X005320Y016451D01*
X005320Y016550D02*
X001350Y016550D01*
X001350Y016648D02*
X005320Y016648D01*
X005261Y016747D02*
X001350Y016747D01*
X001350Y016845D02*
X005187Y016845D01*
X005152Y016944D02*
X001350Y016944D01*
X001350Y017042D02*
X005152Y017042D01*
X005181Y017141D02*
X001350Y017141D01*
X001350Y017239D02*
X005247Y017239D01*
X005405Y017338D02*
X001350Y017338D01*
X001350Y017436D02*
X009402Y017436D01*
X009431Y017448D02*
X009303Y017395D01*
X009205Y017297D01*
X009152Y017169D01*
X009152Y017031D01*
X009159Y017014D01*
X009020Y016875D01*
X009020Y016335D01*
X008975Y016380D01*
X007802Y016380D01*
X007795Y016397D01*
X007697Y016495D01*
X007569Y016548D01*
X007431Y016548D01*
X007303Y016495D01*
X007205Y016397D01*
X007152Y016269D01*
X007152Y016131D01*
X007205Y016003D01*
X007303Y015905D01*
X007431Y015852D01*
X007569Y015852D01*
X007697Y015905D01*
X007795Y016003D01*
X007802Y016020D01*
X008825Y016020D01*
X008859Y015986D01*
X008852Y015969D01*
X008852Y015831D01*
X008905Y015703D01*
X009003Y015605D01*
X009131Y015552D01*
X009269Y015552D01*
X009397Y015605D01*
X009495Y015703D01*
X009548Y015831D01*
X009548Y015969D01*
X009495Y016097D01*
X009397Y016195D01*
X009380Y016202D01*
X009380Y016725D01*
X009414Y016759D01*
X009431Y016752D01*
X009569Y016752D01*
X009697Y016805D01*
X009795Y016903D01*
X009848Y017031D01*
X009848Y017169D01*
X009795Y017297D01*
X009697Y017395D01*
X009569Y017448D01*
X009431Y017448D01*
X009598Y017436D02*
X014502Y017436D01*
X014531Y017448D02*
X014403Y017395D01*
X014305Y017297D01*
X014252Y017169D01*
X014252Y017031D01*
X014305Y016903D01*
X014403Y016805D01*
X014420Y016798D01*
X014420Y016375D01*
X014225Y016180D01*
X012825Y016180D01*
X012686Y016041D01*
X012669Y016048D01*
X012531Y016048D01*
X012403Y015995D01*
X012305Y015897D01*
X012252Y015769D01*
X012252Y015631D01*
X012305Y015503D01*
X012403Y015405D01*
X012531Y015352D01*
X012669Y015352D01*
X012797Y015405D01*
X012895Y015503D01*
X012948Y015631D01*
X012948Y015769D01*
X012941Y015786D01*
X012975Y015820D01*
X014375Y015820D01*
X014480Y015925D01*
X014780Y016225D01*
X014780Y016798D01*
X014797Y016805D01*
X014895Y016903D01*
X014948Y017031D01*
X014948Y017169D01*
X014895Y017297D01*
X014797Y017395D01*
X014669Y017448D01*
X014531Y017448D01*
X014698Y017436D02*
X018850Y017436D01*
X018850Y017338D02*
X014855Y017338D01*
X014919Y017239D02*
X018850Y017239D01*
X018850Y017141D02*
X014948Y017141D01*
X014948Y017042D02*
X018850Y017042D01*
X018850Y016944D02*
X014912Y016944D01*
X014837Y016845D02*
X018850Y016845D01*
X018850Y016747D02*
X014780Y016747D01*
X014780Y016648D02*
X017526Y016648D01*
X017515Y016643D02*
X017423Y016551D01*
X017373Y016431D01*
X017373Y016301D01*
X017423Y016181D01*
X017515Y016089D01*
X017635Y016039D01*
X017765Y016039D01*
X017885Y016089D01*
X017977Y016181D01*
X018027Y016301D01*
X018027Y016431D01*
X017977Y016551D01*
X017885Y016643D01*
X017765Y016693D01*
X017635Y016693D01*
X017515Y016643D01*
X017422Y016550D02*
X014780Y016550D01*
X014780Y016451D02*
X017381Y016451D01*
X017373Y016353D02*
X014780Y016353D01*
X014780Y016254D02*
X017392Y016254D01*
X017448Y016156D02*
X014710Y016156D01*
X014612Y016057D02*
X017591Y016057D01*
X017809Y016057D02*
X018850Y016057D01*
X018850Y015959D02*
X014513Y015959D01*
X014415Y015860D02*
X018850Y015860D01*
X018850Y015762D02*
X012948Y015762D01*
X012948Y015663D02*
X018850Y015663D01*
X018850Y015565D02*
X012921Y015565D01*
X012858Y015466D02*
X018850Y015466D01*
X018850Y015368D02*
X012707Y015368D01*
X012493Y015368D02*
X012060Y015368D01*
X012121Y015466D02*
X012342Y015466D01*
X012279Y015565D02*
X012148Y015565D01*
X012148Y015663D02*
X012252Y015663D01*
X012252Y015762D02*
X012110Y015762D01*
X012032Y015860D02*
X012290Y015860D01*
X012366Y015959D02*
X009548Y015959D01*
X009548Y015860D02*
X011568Y015860D01*
X011800Y015600D02*
X010700Y015600D01*
X010300Y015300D01*
X010300Y014600D01*
X009800Y014100D01*
X008600Y014100D01*
X008200Y013700D01*
X008200Y012600D01*
X007900Y012300D01*
X006100Y012300D01*
X006311Y012019D02*
X011020Y012019D01*
X011020Y012117D02*
X006401Y012117D01*
X005500Y012900D02*
X005500Y017000D01*
X005819Y017141D02*
X009152Y017141D01*
X009152Y017042D02*
X005848Y017042D01*
X005848Y016944D02*
X009089Y016944D01*
X009020Y016845D02*
X005813Y016845D01*
X005739Y016747D02*
X009020Y016747D01*
X009020Y016648D02*
X005680Y016648D01*
X005680Y016550D02*
X009020Y016550D01*
X009020Y016451D02*
X007741Y016451D01*
X007500Y016200D02*
X008900Y016200D01*
X009200Y015900D01*
X009200Y016800D01*
X009500Y017100D01*
X009819Y017239D02*
X014281Y017239D01*
X014252Y017141D02*
X009848Y017141D01*
X009848Y017042D02*
X014252Y017042D01*
X014288Y016944D02*
X009812Y016944D01*
X009737Y016845D02*
X014363Y016845D01*
X014420Y016747D02*
X009401Y016747D01*
X009380Y016648D02*
X014420Y016648D01*
X014420Y016550D02*
X009380Y016550D01*
X009380Y016451D02*
X014420Y016451D01*
X014398Y016353D02*
X009380Y016353D01*
X009380Y016254D02*
X014299Y016254D01*
X014300Y016000D02*
X012900Y016000D01*
X012600Y015700D01*
X012702Y016057D02*
X009512Y016057D01*
X009437Y016156D02*
X012801Y016156D01*
X011911Y015269D02*
X018850Y015269D01*
X018850Y015171D02*
X010480Y015171D01*
X010480Y015072D02*
X018850Y015072D01*
X018850Y014974D02*
X010480Y014974D01*
X010480Y014875D02*
X017478Y014875D01*
X017515Y014911D02*
X017423Y014819D01*
X017373Y014699D01*
X017373Y014569D01*
X017423Y014449D01*
X017515Y014357D01*
X017635Y014307D01*
X017765Y014307D01*
X017885Y014357D01*
X017977Y014449D01*
X018027Y014569D01*
X018027Y014699D01*
X017977Y014819D01*
X017885Y014911D01*
X017765Y014961D01*
X017635Y014961D01*
X017515Y014911D01*
X017405Y014777D02*
X010480Y014777D01*
X010480Y014678D02*
X017373Y014678D01*
X017373Y014580D02*
X010480Y014580D01*
X010436Y014481D02*
X017409Y014481D01*
X017489Y014383D02*
X010337Y014383D01*
X010239Y014284D02*
X010992Y014284D01*
X010900Y014186D02*
X010140Y014186D01*
X010042Y014087D02*
X010859Y014087D01*
X010852Y013989D02*
X009943Y013989D01*
X009729Y014284D02*
X008229Y014284D01*
X008248Y014331D02*
X008195Y014203D01*
X008097Y014105D01*
X007969Y014052D01*
X007831Y014052D01*
X007703Y014105D01*
X007605Y014203D01*
X007598Y014220D01*
X006502Y014220D01*
X006495Y014203D01*
X006397Y014105D01*
X006269Y014052D01*
X006131Y014052D01*
X006003Y014105D01*
X005905Y014203D01*
X005852Y014331D01*
X005852Y014469D01*
X005905Y014597D01*
X006003Y014695D01*
X006131Y014748D01*
X006269Y014748D01*
X006397Y014695D01*
X006495Y014597D01*
X006502Y014580D01*
X007598Y014580D01*
X007605Y014597D01*
X007703Y014695D01*
X007831Y014748D01*
X007969Y014748D01*
X008097Y014695D01*
X008195Y014597D01*
X008248Y014469D01*
X008248Y014331D01*
X008248Y014383D02*
X009828Y014383D01*
X009926Y014481D02*
X008243Y014481D01*
X008202Y014580D02*
X010025Y014580D01*
X010120Y014678D02*
X008114Y014678D01*
X007900Y014400D02*
X006200Y014400D01*
X005871Y014284D02*
X005680Y014284D01*
X005680Y014186D02*
X005922Y014186D01*
X006046Y014087D02*
X005680Y014087D01*
X005680Y013989D02*
X008234Y013989D01*
X008332Y014087D02*
X008054Y014087D01*
X008178Y014186D02*
X008431Y014186D01*
X008645Y013890D02*
X010869Y013890D01*
X010916Y013792D02*
X008546Y013792D01*
X008448Y013693D02*
X011020Y013693D01*
X011020Y013595D02*
X008380Y013595D01*
X008380Y013496D02*
X011020Y013496D01*
X011020Y013398D02*
X008380Y013398D01*
X008380Y013299D02*
X011020Y013299D01*
X011020Y013201D02*
X008380Y013201D01*
X008380Y013102D02*
X011020Y013102D01*
X011020Y013004D02*
X008380Y013004D01*
X008380Y012905D02*
X011020Y012905D01*
X011020Y012807D02*
X008380Y012807D01*
X008380Y012708D02*
X011020Y012708D01*
X011020Y012610D02*
X008380Y012610D01*
X008366Y012511D02*
X011020Y012511D01*
X011020Y012413D02*
X008267Y012413D01*
X008169Y012314D02*
X011020Y012314D01*
X011020Y012216D02*
X008070Y012216D01*
X008020Y013299D02*
X005680Y013299D01*
X005680Y013201D02*
X007116Y013201D01*
X007010Y013102D02*
X005680Y013102D01*
X005680Y013398D02*
X008020Y013398D01*
X008020Y013496D02*
X005680Y013496D01*
X005680Y013595D02*
X008020Y013595D01*
X008020Y013693D02*
X005680Y013693D01*
X005680Y013792D02*
X008037Y013792D01*
X008135Y013890D02*
X005680Y013890D01*
X005680Y014383D02*
X005852Y014383D01*
X005857Y014481D02*
X005680Y014481D01*
X005680Y014580D02*
X005898Y014580D01*
X005986Y014678D02*
X005680Y014678D01*
X005680Y014777D02*
X010120Y014777D01*
X010120Y014875D02*
X005680Y014875D01*
X005680Y014974D02*
X010120Y014974D01*
X010120Y015072D02*
X005680Y015072D01*
X005680Y015171D02*
X010120Y015171D01*
X010114Y015269D02*
X005680Y015269D01*
X005680Y015368D02*
X010120Y015368D01*
X010211Y015466D02*
X005680Y015466D01*
X005680Y015565D02*
X009100Y015565D01*
X008945Y015663D02*
X005680Y015663D01*
X005680Y015762D02*
X008881Y015762D01*
X008852Y015860D02*
X007589Y015860D01*
X007411Y015860D02*
X005680Y015860D01*
X005680Y015959D02*
X007249Y015959D01*
X007182Y016057D02*
X005680Y016057D01*
X005680Y016156D02*
X007152Y016156D01*
X007152Y016254D02*
X005680Y016254D01*
X005680Y016353D02*
X007186Y016353D01*
X007259Y016451D02*
X005680Y016451D01*
X005753Y017239D02*
X009181Y017239D01*
X009245Y017338D02*
X005595Y017338D01*
X007751Y015959D02*
X008852Y015959D01*
X009002Y016353D02*
X009020Y016353D01*
X009519Y015762D02*
X010607Y015762D01*
X010484Y015663D02*
X009455Y015663D01*
X009300Y015565D02*
X010353Y015565D01*
X010690Y015368D02*
X011540Y015368D01*
X011689Y015269D02*
X010559Y015269D01*
X011408Y014284D02*
X018850Y014284D01*
X018850Y014186D02*
X014807Y014186D01*
X014899Y014087D02*
X018850Y014087D01*
X018850Y013989D02*
X014940Y013989D01*
X014948Y013890D02*
X018850Y013890D01*
X018850Y013792D02*
X014932Y013792D01*
X014885Y013693D02*
X018850Y013693D01*
X018850Y013595D02*
X014780Y013595D01*
X014780Y013496D02*
X018850Y013496D01*
X018850Y013398D02*
X014752Y013398D01*
X014654Y013299D02*
X018850Y013299D01*
X018850Y013201D02*
X014555Y013201D01*
X014457Y013102D02*
X018850Y013102D01*
X018850Y013004D02*
X012058Y013004D01*
X011960Y012905D02*
X018850Y012905D01*
X018850Y012807D02*
X011880Y012807D01*
X011880Y012708D02*
X018850Y012708D01*
X018850Y012610D02*
X011880Y012610D01*
X011880Y012511D02*
X015441Y012511D01*
X015403Y012495D02*
X015305Y012397D01*
X015252Y012269D01*
X015252Y012131D01*
X015305Y012003D01*
X015403Y011905D01*
X015531Y011852D01*
X015669Y011852D01*
X015797Y011905D01*
X015895Y012003D01*
X015902Y012020D01*
X016798Y012020D01*
X016805Y012003D01*
X016903Y011905D01*
X017031Y011852D01*
X017169Y011852D01*
X017297Y011905D01*
X017395Y012003D01*
X017448Y012131D01*
X017448Y012269D01*
X017395Y012397D01*
X017297Y012495D01*
X017169Y012548D01*
X017031Y012548D01*
X016903Y012495D01*
X016805Y012397D01*
X016798Y012380D01*
X015902Y012380D01*
X015895Y012397D01*
X015797Y012495D01*
X015669Y012548D01*
X015531Y012548D01*
X015403Y012495D01*
X015320Y012413D02*
X011880Y012413D01*
X011880Y012314D02*
X015270Y012314D01*
X015252Y012216D02*
X011880Y012216D01*
X011880Y012117D02*
X015258Y012117D01*
X015298Y012019D02*
X011880Y012019D01*
X011880Y011920D02*
X015388Y011920D01*
X015600Y012200D02*
X017100Y012200D01*
X016941Y012511D02*
X015759Y012511D01*
X015880Y012413D02*
X016820Y012413D01*
X016798Y012019D02*
X015902Y012019D01*
X015812Y011920D02*
X016888Y011920D01*
X017312Y011920D02*
X018850Y011920D01*
X018850Y011822D02*
X011880Y011822D01*
X011880Y011723D02*
X018850Y011723D01*
X018850Y011625D02*
X011880Y011625D01*
X011880Y011526D02*
X018850Y011526D01*
X018850Y011428D02*
X011880Y011428D01*
X011880Y011329D02*
X018850Y011329D01*
X018850Y011231D02*
X011880Y011231D01*
X011880Y011132D02*
X018850Y011132D01*
X018850Y011034D02*
X011880Y011034D01*
X011880Y010935D02*
X018850Y010935D01*
X018850Y010837D02*
X011791Y010837D01*
X011693Y010738D02*
X018850Y010738D01*
X018850Y010640D02*
X011594Y010640D01*
X011496Y010541D02*
X018850Y010541D01*
X018850Y010443D02*
X011397Y010443D01*
X011299Y010344D02*
X018850Y010344D01*
X018850Y010246D02*
X011280Y010246D01*
X011345Y010147D02*
X018850Y010147D01*
X018850Y010049D02*
X011415Y010049D01*
X011448Y009950D02*
X018850Y009950D01*
X018850Y009852D02*
X011448Y009852D01*
X011416Y009753D02*
X018850Y009753D01*
X018850Y009655D02*
X011347Y009655D01*
X011100Y009900D02*
X011100Y010400D01*
X011700Y011000D01*
X011700Y012900D01*
X012000Y013200D01*
X014300Y013200D01*
X014600Y013500D01*
X014600Y013900D01*
X014420Y013595D02*
X011380Y013595D01*
X011380Y013693D02*
X014315Y013693D01*
X014268Y013792D02*
X011484Y013792D01*
X011531Y013890D02*
X014252Y013890D01*
X014260Y013989D02*
X011548Y013989D01*
X011541Y014087D02*
X014301Y014087D01*
X014393Y014186D02*
X011500Y014186D01*
X011200Y014000D02*
X011200Y011500D01*
X011423Y011231D02*
X011520Y011231D01*
X011506Y011329D02*
X011520Y011329D01*
X011520Y011723D02*
X011469Y011723D01*
X011520Y011822D02*
X011380Y011822D01*
X011380Y011920D02*
X011520Y011920D01*
X011520Y012019D02*
X011380Y012019D01*
X011380Y012117D02*
X011520Y012117D01*
X011520Y012216D02*
X011380Y012216D01*
X011380Y012314D02*
X011520Y012314D01*
X011520Y012413D02*
X011380Y012413D01*
X011380Y012511D02*
X011520Y012511D01*
X011520Y012610D02*
X011380Y012610D01*
X011380Y012708D02*
X011520Y012708D01*
X011520Y012807D02*
X011380Y012807D01*
X011380Y012905D02*
X011520Y012905D01*
X011549Y013004D02*
X011380Y013004D01*
X011380Y013102D02*
X011647Y013102D01*
X011746Y013201D02*
X011380Y013201D01*
X011380Y013299D02*
X011844Y013299D01*
X011380Y013398D02*
X014243Y013398D01*
X014341Y013496D02*
X011380Y013496D01*
X014300Y016000D02*
X014600Y016300D01*
X014600Y017100D01*
X014345Y017338D02*
X009755Y017338D01*
X007686Y014678D02*
X006414Y014678D01*
X006478Y014186D02*
X007622Y014186D01*
X007746Y014087D02*
X006354Y014087D01*
X002109Y018323D02*
X018091Y018323D01*
X018043Y018421D02*
X002157Y018421D01*
X002198Y018520D02*
X018002Y018520D01*
X017961Y018618D02*
X002239Y018618D01*
X002260Y018717D02*
X017940Y018717D01*
X017940Y018815D02*
X002260Y018815D01*
X002011Y018224D02*
X018189Y018224D01*
X018288Y018126D02*
X001912Y018126D01*
X001741Y018027D02*
X018459Y018027D01*
X018850Y017929D02*
X001350Y017929D01*
X001350Y017830D02*
X018850Y017830D01*
X018850Y017732D02*
X001350Y017732D01*
X001350Y017633D02*
X018850Y017633D01*
X018850Y017535D02*
X001350Y017535D01*
X009480Y007586D02*
X017050Y007586D01*
X017055Y007488D02*
X009480Y007488D01*
X009480Y007389D02*
X017096Y007389D01*
X017152Y007291D02*
X009480Y007291D01*
X009480Y007192D02*
X017251Y007192D01*
X017367Y007024D02*
X017226Y006883D01*
X017150Y006699D01*
X017150Y006501D01*
X017226Y006317D01*
X017367Y006176D01*
X017551Y006100D01*
X017749Y006100D01*
X017933Y006176D01*
X018074Y006317D01*
X018150Y006501D01*
X018150Y006699D01*
X018074Y006883D01*
X017933Y007024D01*
X017749Y007100D01*
X017551Y007100D01*
X017367Y007024D01*
X017338Y006995D02*
X009480Y006995D01*
X009480Y006897D02*
X017239Y006897D01*
X017191Y006798D02*
X009480Y006798D01*
X009480Y006700D02*
X017150Y006700D01*
X017150Y006601D02*
X009480Y006601D01*
X009480Y006503D02*
X017150Y006503D01*
X017190Y006404D02*
X009480Y006404D01*
X009480Y006306D02*
X017237Y006306D01*
X017336Y006207D02*
X009480Y006207D01*
X009480Y006109D02*
X017530Y006109D01*
X017770Y006109D02*
X018850Y006109D01*
X018850Y006207D02*
X017964Y006207D01*
X017974Y006100D02*
X017126Y006100D01*
X017050Y006024D01*
X017050Y005176D01*
X017126Y005100D01*
X017974Y005100D01*
X018050Y005176D01*
X018050Y006024D01*
X017974Y006100D01*
X018050Y006010D02*
X018850Y006010D01*
X018850Y005912D02*
X018050Y005912D01*
X018050Y005813D02*
X018850Y005813D01*
X018850Y005715D02*
X018050Y005715D01*
X018050Y005616D02*
X018850Y005616D01*
X018850Y005518D02*
X018050Y005518D01*
X018050Y005419D02*
X018850Y005419D01*
X018850Y005321D02*
X018050Y005321D01*
X018050Y005222D02*
X018850Y005222D01*
X018850Y005124D02*
X017997Y005124D01*
X018850Y005025D02*
X009280Y005025D01*
X009280Y005124D02*
X017103Y005124D01*
X017050Y005222D02*
X009280Y005222D01*
X009280Y005321D02*
X017050Y005321D01*
X017050Y005419D02*
X009280Y005419D01*
X009280Y005518D02*
X017050Y005518D01*
X017050Y005616D02*
X009280Y005616D01*
X009280Y005715D02*
X017050Y005715D01*
X017050Y005813D02*
X009280Y005813D01*
X009366Y005912D02*
X017050Y005912D01*
X017050Y006010D02*
X009465Y006010D01*
X009366Y004927D02*
X009834Y004927D01*
X010366Y004927D02*
X018850Y004927D01*
X018850Y004828D02*
X010465Y004828D01*
X010563Y004730D02*
X018850Y004730D01*
X018850Y004631D02*
X010590Y004631D01*
X010590Y004533D02*
X018850Y004533D01*
X018850Y004434D02*
X010590Y004434D01*
X010590Y004336D02*
X018850Y004336D01*
X018850Y004237D02*
X010530Y004237D01*
X010431Y004139D02*
X018850Y004139D01*
X018850Y004040D02*
X010333Y004040D01*
X010380Y003942D02*
X018850Y003942D01*
X018850Y003843D02*
X010478Y003843D01*
X010577Y003745D02*
X018850Y003745D01*
X018850Y003646D02*
X010610Y003646D01*
X010610Y003449D02*
X018850Y003449D01*
X018850Y003351D02*
X010610Y003351D01*
X010573Y003252D02*
X018850Y003252D01*
X018850Y003154D02*
X010475Y003154D01*
X010376Y003055D02*
X018850Y003055D01*
X018850Y002957D02*
X006120Y002957D01*
X006120Y002858D02*
X018850Y002858D01*
X018850Y002760D02*
X006120Y002760D01*
X006120Y002661D02*
X018850Y002661D01*
X018850Y002563D02*
X006120Y002563D01*
X006213Y002464D02*
X018850Y002464D01*
X018850Y002366D02*
X006301Y002366D01*
X006342Y002267D02*
X018850Y002267D01*
X018448Y002169D02*
X006370Y002169D01*
X006370Y002070D02*
X018283Y002070D01*
X018185Y001972D02*
X006358Y001972D01*
X006317Y001873D02*
X018086Y001873D01*
X018041Y001775D02*
X006252Y001775D01*
X006153Y001676D02*
X005969Y001600D01*
X005771Y001600D01*
X005587Y001676D01*
X004780Y001676D02*
X004680Y001676D01*
X004680Y001775D02*
X004780Y001775D01*
X004780Y001873D02*
X004680Y001873D01*
X010050Y003055D02*
X010150Y003055D01*
X010150Y003154D02*
X010050Y003154D01*
X010050Y003252D02*
X010150Y003252D01*
X010150Y003351D02*
X010050Y003351D01*
X010050Y003449D02*
X010150Y003449D01*
X010150Y003548D02*
X018850Y003548D01*
X018850Y006306D02*
X018063Y006306D01*
X018110Y006404D02*
X018850Y006404D01*
X018850Y006503D02*
X018150Y006503D01*
X018150Y006601D02*
X018850Y006601D01*
X018850Y006700D02*
X018150Y006700D01*
X018109Y006798D02*
X018850Y006798D01*
X018850Y006897D02*
X018061Y006897D01*
X017962Y006995D02*
X018850Y006995D01*
X018850Y007094D02*
X017765Y007094D01*
X017849Y007192D02*
X018850Y007192D01*
X018850Y007291D02*
X017948Y007291D01*
X018004Y007389D02*
X018850Y007389D01*
X018850Y007488D02*
X018045Y007488D01*
X018050Y007586D02*
X018850Y007586D01*
X018850Y007685D02*
X018050Y007685D01*
X018015Y007783D02*
X018850Y007783D01*
X018850Y007882D02*
X017975Y007882D01*
X017877Y007980D02*
X018850Y007980D01*
X018850Y008079D02*
X017701Y008079D01*
X017934Y008177D02*
X018850Y008177D01*
X018850Y008276D02*
X018033Y008276D01*
X018098Y008374D02*
X018850Y008374D01*
X018850Y008473D02*
X018138Y008473D01*
X018150Y008571D02*
X018850Y008571D01*
X018850Y008670D02*
X018150Y008670D01*
X018122Y008768D02*
X018850Y008768D01*
X018850Y008867D02*
X018081Y008867D01*
X017992Y008965D02*
X018850Y008965D01*
X017535Y007094D02*
X009480Y007094D01*
X017259Y012511D02*
X018850Y012511D01*
X018850Y012413D02*
X017380Y012413D01*
X017430Y012314D02*
X018850Y012314D01*
X018850Y012216D02*
X017448Y012216D01*
X017442Y012117D02*
X018850Y012117D01*
X018850Y012019D02*
X017402Y012019D01*
X017911Y014383D02*
X018850Y014383D01*
X018850Y014481D02*
X017991Y014481D01*
X018027Y014580D02*
X018850Y014580D01*
X018850Y014678D02*
X018027Y014678D01*
X017995Y014777D02*
X018850Y014777D01*
X018850Y014875D02*
X017922Y014875D01*
X017952Y016156D02*
X018850Y016156D01*
X018850Y016254D02*
X018008Y016254D01*
X018027Y016353D02*
X018850Y016353D01*
X018850Y016451D02*
X018019Y016451D01*
X017978Y016550D02*
X018850Y016550D01*
X018850Y016648D02*
X017874Y016648D01*
D16*
X005900Y003500D02*
X004600Y003500D01*
X005870Y003500D02*
X005870Y002100D01*
X005900Y003500D02*
X005870Y003500D01*
M02*
